<?xml version="1.0" encoding="UTF-8"?>
<svg width="53px" height="90px" viewBox="0 0 53 90" version="1.1" xmlns="http://www.w3.org/2000/svg" xmlns:xlink="http://www.w3.org/1999/xlink">
    <!-- Generator: Sketch 55.2 (78181) - https://sketchapp.com -->
    <title>Shape</title>
    <desc>Created with Sketch.</desc>
    <g id="Page-1" stroke="none" stroke-width="1" fill="none" fill-rule="evenodd">
        <g id="Artboard" transform="translate(-28.000000, -9.000000)" fill="#FFFFFF">
            <g id="Group-4">
                <g id="Group-2" transform="translate(26.000000, 8.000000)">
                    <g id="Group" transform="translate(27.967899, 45.564176) rotate(-1.000000) translate(-27.967899, -45.564176) translate(1.467899, 1.064176)">
                        <path d="M7.80707655,87.311374 L21.0163835,54.0885587 L1.22561902,40.8093147 C0.767005761,40.5015935 0.644683561,39.8803567 0.952404739,39.4217435 C0.998932183,39.3524011 1.05396198,39.2891597 1.11620912,39.2334959 L44.419757,0.509811027 C44.8314444,0.14166443 45.4636248,0.176961238 45.8317714,0.588648654 C46.0863219,0.873304962 46.1565338,1.27808027 46.0127217,1.63183619 L31.5672323,37.1655303 L52.4450127,48.1210539 C52.9340556,48.3776771 53.1224691,48.9821589 52.865846,49.4712018 C52.8102675,49.5771168 52.7361381,49.6722016 52.6469804,49.7519377 L9.40294615,88.4262324 C8.99127685,88.7943993 8.35909474,88.7591336 7.99092788,88.3474643 C7.7381992,88.0648733 7.66700611,87.6636661 7.80707655,87.311374 Z" id="Shape"></path>
                    </g>
                </g>
            </g>
        </g>
    </g>
</svg>